<svg width="135" height="40" viewBox="0 0 135 40" fill="none" xmlns="http://www.w3.org/2000/svg">
<g clip-path="url(#clip0_237_353)">
<path d="M10.5854 14.4682C10.5854 13.0328 10.1516 11.9948 9.28405 11.3493C8.41652 10.704 6.99135 10.3786 5.01373 10.3786H3.86214V18.5268H5.01373C7.05341 18.5268 8.48886 18.2118 9.33056 17.5871C10.1671 16.9622 10.5854 15.9242 10.5854 14.4682V14.4682ZM13.1878 14.4682C13.1878 16.5956 12.4855 18.2119 11.0862 19.3168C9.68168 20.422 7.63174 20.9743 4.93626 20.9743H3.86207V31.2913H1.25983V7.93091H4.93626C7.70386 7.93091 9.76936 8.47307 11.1377 9.56274C12.5061 10.6521 13.1878 12.2891 13.1878 14.4682L13.1878 14.4682Z" fill="#FF0000"/>
<path d="M50.5412 16.8229L43.6271 31.9421L39.2277 21.6508L34.8541 31.9421L27.9244 16.8229H30.7386L34.8232 26.5565L39.1967 16.1413L43.6271 26.5565L47.6806 16.8229H50.5412Z" fill="#FF0000"/>
<path d="M62.3555 23.8918C62.3555 22.3066 61.9217 21.0519 61.0491 20.1276C60.1764 19.2033 59.0145 18.7438 57.5584 18.7438C56.1177 18.7438 54.9455 19.2239 54.042 20.1793C53.1384 21.1398 52.6889 22.4047 52.6889 23.9798C52.6889 25.5754 53.133 26.8714 54.0214 27.8732C54.9095 28.8697 56.0453 29.3706 57.4397 29.3706C58.8493 29.3706 60.0215 28.8595 60.9561 27.8319C61.8906 26.8095 62.3555 25.4926 62.3555 23.8919V23.8918ZM64.834 31.2914H62.3555V28.9006C61.8598 29.83 61.1679 30.5375 60.2746 31.0228C59.3811 31.5135 58.3278 31.756 57.1144 31.756C55.0953 31.756 53.4378 31.0228 52.1315 29.5614C50.8302 28.1003 50.1795 26.231 50.1795 23.9539C50.1795 21.7231 50.8353 19.9055 52.1418 18.5009C53.4482 17.0913 55.1264 16.3891 57.1763 16.3891C58.3381 16.3891 59.3605 16.6162 60.2486 17.0706C61.1368 17.5198 61.8391 18.1705 62.3555 19.0173V16.8227H64.834V31.2913V31.2914Z" fill="#FF0000"/>
<path d="M74.1182 7.83297C73.9478 7.75044 73.7516 7.68324 73.5399 7.6368C73.3281 7.58515 73.1113 7.55932 72.8892 7.55932C72.1509 7.55932 71.6603 7.81743 71.4177 8.33904C71.1749 8.85545 71.0511 9.83655 71.0511 11.2773V16.823H73.9944V19.0537H71.0511V31.2915H68.5725V19.0537H66.8684V16.823H68.5725V11.2152C68.5725 9.11882 68.8823 7.61618 69.4966 6.71255C70.1111 5.80892 71.1389 5.35971 72.5742 5.35971C72.8737 5.35971 73.1577 5.37519 73.416 5.41115C73.669 5.44739 73.9065 5.49903 74.1182 5.57137V7.83297Z" fill="#FF0000"/>
<path d="M83.2523 16.6576L82.6635 19.1156C82.4828 19.0019 82.2867 18.9141 82.0749 18.8573C81.8632 18.8007 81.636 18.7747 81.3932 18.7747C80.1746 18.7747 79.2556 19.2962 78.6359 20.3446C78.0161 21.3877 77.7063 22.9522 77.7063 25.0279V31.2914H75.2278V16.8229H77.7063V19.3737C78.0576 18.3307 78.5687 17.5768 79.2349 17.1016C79.8959 16.6267 80.784 16.3892 81.8941 16.3892C82.1523 16.3892 82.4105 16.415 82.6533 16.4614C82.9011 16.5131 83.1024 16.5801 83.2523 16.6576Z" fill="#FF0000"/>
<path d="M86.7685 31.2914H84.2898V16.8229H86.7685V31.2914ZM87.2332 11.1274C87.2332 11.5921 87.0628 11.9949 86.7271 12.3253C86.3864 12.6609 85.9887 12.8262 85.524 12.8262C85.0593 12.8262 84.6564 12.6609 84.3261 12.3253C83.9905 11.9949 83.8251 11.5921 83.8251 11.1274C83.8251 10.6626 83.9904 10.265 84.3261 9.92416C84.6564 9.58858 85.0593 9.41809 85.524 9.41809C85.9887 9.41809 86.3864 9.58851 86.7271 9.92416C87.0628 10.265 87.2332 10.6626 87.2332 11.1274Z" fill="#FF0000"/>
<path d="M118.364 25.059C118.364 27.3671 117.899 29.0607 116.965 30.1399C116.03 31.2191 114.579 31.7562 112.601 31.7562C110.614 31.7562 109.157 31.2191 108.228 30.1399C107.304 29.0607 106.839 27.3671 106.839 25.059V16.8229H109.318V24.9659C109.318 26.5099 109.565 27.6304 110.066 28.3274C110.567 29.0245 111.409 29.3705 112.602 29.3705C113.789 29.3705 114.631 29.0299 115.121 28.343C115.612 27.6563 115.855 26.5305 115.855 24.9659V16.8229H118.364V25.059Z" fill="#FF0000"/>
<path d="M132.017 22.6786C131.888 21.4391 131.423 20.4735 130.628 19.7816C129.832 19.0898 128.8 18.7438 127.529 18.7438C126.311 18.7438 125.278 19.1 124.431 19.8127C123.59 20.5201 123.089 21.4754 122.939 22.6787H132.017V22.6786ZM134.495 24.4444H122.877C122.97 26.0038 123.43 27.2174 124.261 28.0797C125.092 28.9419 126.202 29.3705 127.591 29.3705C128.65 29.3705 129.549 29.164 130.287 28.7458C131.025 28.3274 131.614 27.6975 132.048 26.861L134.129 27.9506C133.463 29.2104 132.58 30.1554 131.475 30.7956C130.369 31.4359 129.063 31.7561 127.561 31.7561C125.381 31.7561 123.641 31.0436 122.345 29.6237C121.049 28.2036 120.398 26.3188 120.398 23.9797C120.398 21.8057 121.085 19.9933 122.459 18.5528C123.832 17.112 125.521 16.3892 127.529 16.3892C129.59 16.3892 131.263 17.0502 132.559 18.372C133.85 19.6939 134.495 21.4289 134.495 23.5769V24.4445V24.4444Z" fill="#FF0000"/>
<path fill-rule="evenodd" clip-rule="evenodd" d="M98.1243 30.1743C97.9663 30.3485 97.8031 30.5166 97.6243 30.6587C96.486 31.5628 96.0692 31.1369 94.9354 31.326C94.5243 31.394 94.3238 31.5532 94.0984 31.5881H93.9251C93.8038 31.5692 93.6631 31.5093 93.477 31.3838C93.1011 31.1307 93.1054 30.305 92.9274 29.7121C92.7488 29.1156 92.6413 29.1771 92.3265 28.7834C92.2136 28.642 92.1383 28.4772 92.039 28.3301C91.7229 27.861 91.8075 27.6095 91.794 27.0454C91.762 25.6948 90.3607 24.8168 90.3607 23.2964C90.3607 21.9063 91.3478 21.6613 91.3478 21.4701C91.3478 21.2043 91.1033 20.8881 91 20.6827C90.828 20.3399 90.9036 19.9401 90.9036 19.5449C90.9036 19.2867 89.8634 17.7774 89.6344 17.5564C89.4893 17.4161 89.0774 17.2164 89.0774 17.0277C89.0774 16.8412 89.1992 16.6543 89.2558 16.466C89.3621 16.1129 89.2658 15.6044 89.5127 15.2915C89.6253 15.1489 89.7685 15.1009 89.7685 14.8562C89.7685 14.6075 89.2167 14.3406 89.0279 14.2146C88.1187 14.8235 87.9042 14.8996 87.4829 14.0322C86.9509 12.9373 85.9025 13.7623 85.0946 14.0812C84.3587 14.3722 83.5582 14.2146 82.7104 14.2146C81.5425 14.2146 82.7896 15.7097 80.5997 13.7587C80.1988 13.4018 79.7338 13.0507 79.4851 12.5535C78.8895 11.3623 77.7413 11.837 77.9112 10.6954C77.9921 10.1512 77.655 10.2079 77.6265 9.87153C77.8173 9.8203 77.8041 9.77337 77.8909 9.59267C78.0681 9.22378 78.4163 9.00664 78.4163 8.53882C78.4163 8.24317 78.3606 7.8942 78.2693 7.64949C78.0544 7.07533 77.9612 6.89088 78.308 6.35733C79.0205 5.26148 78.714 4.99227 79.8766 4.22414C80.8591 3.57494 80.8358 4.07378 80.9471 3.12309C81.0125 2.56586 81.2062 2.00607 81.7447 1.74915C81.9241 1.66327 81.839 1.71152 81.992 1.60135C83.0126 0.869188 82.6387 1.08571 83.895 1.08571C84.0379 1.08571 84.9219 0.71126 85.0864 0.648436C85.4761 0.500642 85.8516 0.368468 86.2574 0.240112C86.8877 0.0411572 87.8069 0.232337 88.5228 0.1364C88.809 0.0980808 89.0812 6.10352e-05 89.3738 6.10352e-05C89.804 6.10352e-05 90.1632 0.593386 90.1632 1.03684C90.1632 1.37852 89.6698 1.13798 89.6698 1.43155C89.6698 1.62266 89.8707 1.69757 90.0327 1.75935C90.2452 1.84008 90.2982 1.90326 90.4683 2.0146C90.8392 2.25688 91.0177 2.2121 91.4648 2.35059C91.8274 2.4625 92.0152 2.65048 92.3333 2.81501C92.5412 2.92268 93.1057 3.06006 93.4208 3.06006C93.6684 3.06006 94.3232 2.12241 94.803 2.12241C95.3117 2.12241 95.5453 2.47027 96.2322 2.46951C96.6047 2.46916 97.1531 2.39717 97.544 2.51567L97.413 3.04201C97.3079 3.12455 97.2004 3.19723 97.1211 3.25658C96.6319 3.62207 96.853 3.7807 97.1857 3.46984C97.2759 3.38542 97.3091 3.32038 97.3613 3.25006L93.7304 17.8461L101.548 16.0312L98.1241 30.1744L98.1243 30.1743Z" fill="#AB0707"/>
<path fill-rule="evenodd" clip-rule="evenodd" d="M98.8665 2.76343L104.724 1.47446L101.185 11.3107L108.673 9.4555L99.5953 29.2665L103.173 14.0935L95.6199 15.8162L98.8665 2.76343Z" fill="#FF6600"/>
<path d="M0.504761 39.8399H1.75903L2.32819 38.399H5.05893L5.64594 39.8399H6.92679L4.21382 33.5423H3.24439L0.504761 39.8399ZM2.71069 37.4384L3.69804 34.8766L4.66769 37.4384H2.71076H2.71069ZM13.5628 33.5423H12.442V37.4916C12.442 38.1142 12.1041 38.9327 11.0277 38.9327C9.95152 38.9327 9.61345 38.1143 9.61345 37.4916V33.5423H8.49282V37.5273C8.49282 39.0483 9.58679 40 11.0277 40C12.4688 40 13.5628 39.0483 13.5628 37.5273V33.5423ZM17.1211 39.8399H18.2419V34.5564H20.172V33.5423H15.1909V34.5564H17.121V39.8399H17.1211ZM21.4889 36.7178C21.4889 38.6836 22.8765 39.9999 24.8157 39.9999C26.7814 39.9644 28.1688 38.6479 28.1688 36.6821C28.1688 34.663 26.7814 33.3466 24.8157 33.3822C22.8766 33.3822 21.4889 34.6987 21.4889 36.7178ZM22.6631 36.6467C22.6631 35.3925 23.5258 34.3962 24.8245 34.3962C26.132 34.3962 26.995 35.3925 26.995 36.6467C26.995 37.9897 26.132 38.986 24.8245 38.986C23.5258 38.986 22.6631 37.9897 22.6631 36.6467ZM30.153 39.8399H31.2204V34.6097H31.2382L33.1506 39.8399H33.9334L35.8458 34.6097H35.8636V39.8399H36.931V33.5423H35.241L33.5421 37.9543L31.861 33.5423H30.1531V39.8399H30.153ZM38.5501 39.8399H39.8044L40.3735 38.399H43.1043L43.6913 39.8399H44.9721L42.2592 33.5423H41.2897L38.5501 39.8399ZM40.756 37.4384L41.7434 34.8766L42.713 37.4384H40.7561H40.756ZM47.0362 39.8399H48.1568V34.5564H50.0869V33.5423H45.106V34.5564H47.0361V39.8399H47.0362ZM51.7152 39.8399H52.8359V33.5423H51.7152V39.8399ZM54.7666 36.7178C54.7666 38.6836 56.1542 39.9999 58.0933 39.9999C60.0591 39.9644 61.4465 38.6479 61.4465 36.6821C61.4465 34.663 60.0591 33.3466 58.0933 33.3822C56.1542 33.3822 54.7666 34.6987 54.7666 36.7178ZM55.9408 36.6467C55.9408 35.3925 56.8035 34.3962 58.1021 34.3962C59.4096 34.3962 60.2726 35.3925 60.2726 36.6467C60.2726 37.9897 59.4096 38.986 58.1021 38.986C56.8035 38.986 55.9408 37.9897 55.9408 36.6467ZM63.404 39.8399H64.5247V35.01H64.5426L67.6558 39.8399H69.0789V33.5423H67.9583V38.221H67.9404L64.8894 33.5423H63.404V39.8399ZM74.007 39.8399H77.805V38.8259H75.1277V33.5423H74.007V39.8399ZM80.8031 39.8399H81.9239V34.5564H83.8541V33.5423H78.873V34.5564H80.803V39.8399H80.8031ZM85.509 39.8399H87.8573C89.3693 39.8399 91.1928 38.8436 91.1928 36.6912C91.1928 34.5564 89.645 33.5422 87.9907 33.5422H85.509V39.8398V39.8399ZM86.6296 38.8259V34.5564H87.6526C89.0223 34.5564 90.0187 35.1612 90.0187 36.6912C90.0187 38.221 88.8712 38.8259 87.4657 38.8259H86.6296V38.8259ZM93.0522 39.2173C93.0522 39.5998 93.3902 39.8932 93.7639 39.8932C94.1552 39.8932 94.4754 39.582 94.4754 39.1995C94.4754 38.817 94.1462 38.5234 93.7639 38.5234C93.3724 38.5234 93.0522 38.8348 93.0522 39.2173Z" fill="#FF6600"/>
<path d="M26.0517 31.2913H23.5732V28.9004C23.0774 29.8299 22.3856 30.5373 21.4922 31.0227C20.5989 31.5134 19.5454 31.756 18.3321 31.756C16.313 31.756 14.6555 31.0227 13.3491 29.5614C12.0479 28.1001 11.3972 26.2308 11.3972 23.9537C11.3972 21.723 12.053 19.9053 13.3594 18.5008C14.6658 17.0911 16.344 16.3887 18.394 16.3887C19.5558 16.3887 20.5783 16.616 21.4663 17.0704C22.3546 17.5196 23.0567 18.1702 23.5732 19.0171V16.8225H26.0517V31.2911V31.2913Z" fill="#FF0000"/>
<path fill-rule="evenodd" clip-rule="evenodd" d="M20.1628 19.8304C22.1489 20.4438 23.5918 22.2934 23.5918 24.4809C23.5918 27.169 21.4127 29.3482 18.7246 29.3482C16.0365 29.3482 13.8574 27.169 13.8574 24.4809C13.8574 22.2934 15.3004 20.4438 17.2863 19.8304V21.5637C16.2116 22.0944 15.4723 23.2012 15.4723 24.4809C15.4723 26.2772 16.9284 27.7333 18.7246 27.7333C20.5208 27.7333 21.977 26.2771 21.977 24.4809C21.977 23.2012 21.2376 22.0944 20.1628 21.5637V19.8304Z" fill="#FEFEFE"/>
<path fill-rule="evenodd" clip-rule="evenodd" d="M17.9453 18.7971H19.5038V22.7641H17.9453V18.7971Z" fill="#FEFEFE"/>
<path d="M98.9809 36.0742H99.5541V34.7091H99.9728L100.719 36.0742H101.411L100.555 34.6499C101.033 34.5816 101.302 34.2404 101.302 33.7762C101.302 33.0527 100.719 32.8524 100.1 32.8524H98.981V36.0742H98.9809ZM99.5541 34.2176V33.344H100.05C100.346 33.344 100.701 33.3895 100.701 33.7716C100.701 34.1903 100.323 34.2176 100 34.2176H99.5541V34.2176ZM104.505 33.2803C104.187 32.9117 103.813 32.7706 103.377 32.7706C102.385 32.7706 101.675 33.444 101.675 34.477C101.675 35.4826 102.384 36.1561 103.377 36.1561C103.85 36.1561 104.287 35.9832 104.578 35.5827L104.105 35.2461C103.891 35.519 103.641 35.6374 103.381 35.6374C102.717 35.6374 102.275 35.1277 102.275 34.4407C102.275 33.799 102.717 33.2893 103.381 33.2893C103.604 33.2893 103.822 33.3576 104.059 33.608L104.505 33.2803ZM106.312 36.0742H106.885V33.6033H106.894L108.487 36.0742H109.215V32.8524H108.641V35.2461H108.632L107.072 32.8524H106.312V36.0742ZM109.774 34.9822C109.774 35.6693 110.302 36.129 110.962 36.129C111.622 36.129 112.15 35.6693 112.15 34.9822C112.15 34.2949 111.622 33.8353 110.962 33.8353C110.302 33.8353 109.774 34.2949 109.774 34.9822ZM110.32 34.9822C110.32 34.641 110.562 34.3269 110.962 34.3269C111.362 34.3269 111.604 34.641 111.604 34.9822C111.604 35.3233 111.362 35.6374 110.962 35.6374C110.562 35.6374 110.32 35.3233 110.32 34.9822ZM112.659 35.7558C112.659 35.9515 112.832 36.1016 113.023 36.1016C113.224 36.1016 113.387 35.9423 113.387 35.7466C113.387 35.551 113.219 35.4008 113.023 35.4008C112.823 35.4008 112.659 35.5601 112.659 35.7558ZM116.263 36.0743H116.809V32.8525H116.313L115.339 33.6624L115.658 34.0402L116.263 33.4805V36.0742V36.0743ZM119.062 32.8525L118.238 34.1494C118.061 34.4315 117.938 34.6955 117.938 35.0323C117.938 35.7147 118.411 36.129 119.084 36.129C119.744 36.129 120.231 35.6965 120.231 35.0277C120.231 34.4679 119.831 33.9993 119.262 33.9993C119.153 33.9993 119.025 34.0175 118.962 34.0538L118.952 34.0448L119.726 32.8525H119.062ZM118.511 35.0231C118.511 34.7 118.775 34.4361 119.098 34.4361C119.421 34.4361 119.685 34.7 119.685 35.0231C119.685 35.3462 119.421 35.6101 119.098 35.6101C118.775 35.6101 118.511 35.3462 118.511 35.0231ZM120.623 33.3714H122.197L120.882 36.0743H121.524L122.811 33.353V32.8525H120.622V33.3714L120.623 33.3714ZM124.136 34.641H124.268C124.6 34.641 124.982 34.7136 124.982 35.1323C124.982 35.4326 124.732 35.6375 124.44 35.6375C124.149 35.6375 123.985 35.4827 123.917 35.2188L123.335 35.3735C123.476 35.9104 123.913 36.129 124.44 36.129C125.014 36.129 125.528 35.7922 125.528 35.1778C125.528 34.7819 125.309 34.4543 124.9 34.3951V34.386C125.241 34.2996 125.451 34.0038 125.451 33.6578C125.451 33.089 124.973 32.798 124.418 32.798C123.944 32.798 123.526 33.0118 123.385 33.4896L123.963 33.6442C124.04 33.4213 124.227 33.2893 124.445 33.2893C124.713 33.2893 124.905 33.4668 124.905 33.7125C124.905 34.1039 124.591 34.1493 124.277 34.1493H124.136V34.6409V34.641ZM126.001 34.4635C126.001 35.9878 126.807 36.129 127.166 36.129C127.526 36.129 128.331 35.9878 128.331 34.4635C128.331 32.9389 127.526 32.798 127.166 32.798C126.807 32.798 126.001 32.939 126.001 34.4635ZM126.547 34.4635C126.547 34.063 126.62 33.3167 127.166 33.3167C127.712 33.3167 127.785 34.063 127.785 34.4635C127.785 34.8638 127.712 35.6101 127.166 35.6101C126.62 35.6101 126.547 34.8638 126.547 34.4635ZM129.523 34.641H129.655C129.988 34.641 130.37 34.7136 130.37 35.1323C130.37 35.4326 130.119 35.6375 129.828 35.6375C129.537 35.6375 129.373 35.4827 129.305 35.2188L128.722 35.3735C128.863 35.9104 129.3 36.129 129.828 36.129C130.402 36.129 130.916 35.7922 130.916 35.1778C130.916 34.7819 130.697 34.4543 130.288 34.3951V34.386C130.629 34.2996 130.838 34.0038 130.838 33.6578C130.838 33.089 130.361 32.798 129.805 32.798C129.332 32.798 128.914 33.0118 128.772 33.4896L129.35 33.6442C129.428 33.4213 129.614 33.2893 129.833 33.2893C130.101 33.2893 130.292 33.4668 130.292 33.7125C130.292 34.1039 129.978 34.1493 129.664 34.1493H129.523V34.6409V34.641ZM131.475 36.0743H133.632V35.5828H132.14L133.136 34.6591C133.423 34.3952 133.632 34.1175 133.632 33.7126C133.632 33.0937 133.168 32.798 132.59 32.798C132.008 32.798 131.576 33.1119 131.521 33.708L132.094 33.7536C132.131 33.4896 132.322 33.3167 132.59 33.3167C132.84 33.3167 133.059 33.476 133.059 33.74C133.059 33.963 132.877 34.1403 132.727 34.286L131.475 35.4963V36.0743Z" fill="#373435"/>
</g>
<defs>
<clipPath id="clip0_237_353">
<rect width="133.99" height="40" fill="white" transform="translate(0.504761)"/>
</clipPath>
</defs>
</svg>
